<svg xmlns="http://www.w3.org/2000/svg" viewBox="0 0 64 64">
  <!-- warm shell paper tile -->
  <rect width="64" height="64" rx="14" fill="#f6f2ea"/>
  <!-- hand-drawn ink frame (wobbly double rule, editorial manual feel) -->
  <g fill="none" stroke="#15233b" stroke-linecap="round" stroke-linejoin="round">
    <path d="M13.5 6.6 Q6.8 6.2 6.4 13.6 L6.7 50.4 Q6.2 57.4 13.4 57.6 L50.6 57.2 Q57.6 57.7 57.4 50.2 L57.2 13.8 Q57.7 6.4 50.2 6.6 Z" stroke-width="1.9"/>
    <path d="M11 9.6 Q9.4 9.6 9.4 11.4" stroke-width="0.9" opacity="0.4"/>
    <path d="M54.6 52.4 Q54.6 54.4 52.6 54.4" stroke-width="0.9" opacity="0.4"/>
  </g>
  <!-- hand-drawn serif N: thin stems, thick diagonal, slab serif feet -->
  <g fill="none" stroke="#15233b" stroke-linecap="round" stroke-linejoin="round">
    <path d="M19.6 19.5 C19 28, 19.4 39, 19.6 46.8" stroke-width="3.1"/>
    <path d="M43.4 18.8 C43 27, 43.6 38, 43.4 46.2" stroke-width="3.1"/>
    <path d="M20.2 19.8 C27 28.5, 35.4 39, 43 46" stroke-width="5.4"/>
    <g stroke-width="2.5">
      <path d="M15 19.4 C17.6 18.7, 21.8 18.9, 24.4 19.5"/>
      <path d="M15 47 C17.6 47.4, 21.8 47.2, 24.4 46.8"/>
      <path d="M38.8 18.7 C41.4 18, 45.6 18.2, 48 18.8"/>
      <path d="M38.8 46.4 C41.4 46.7, 45.6 46.5, 48 46.2"/>
    </g>
  </g>
  <!-- terracotta hand-drawn underline (primary warm accent) -->
  <path d="M16.5 52.2 C24 49.8, 31.5 54, 39 51.4 C42.6 50.2, 45.4 51.6, 47.4 51" fill="none" stroke="#c45b3c" stroke-width="2.3" stroke-linecap="round"/>
  <!-- strawberry sparkle — the brand punctuation, tucked at top-right -->
  <g fill="none" stroke="#e07d93" stroke-width="1.5" stroke-linecap="round">
    <path d="M50 8.4 L49.8 17.6"/>
    <path d="M45.2 12.8 L54.6 13.2"/>
    <path d="M46.7 9.7 L53.2 16.3"/>
    <path d="M53.2 9.7 L46.7 16.3"/>
  </g>
</svg>
